<svg id="visual" viewBox="0 0 900 100" width="900" height="100" xmlns="http://www.w3.org/2000/svg" xmlns:xlink="http://www.w3.org/1999/xlink" version="1.1"><rect x="0" y="0" width="900" height="100" fill="#fff"></rect><path d="M0 44L12.5 47.7C25 51.3 50 58.7 75 60C100 61.3 125 56.7 150 54.2C175 51.7 200 51.3 225 54.2C250 57 275 63 300 62C325 61 350 53 375 51.5C400 50 425 55 450 52.3C475 49.7 500 39.3 525 37C550 34.7 575 40.3 600 45.3C625 50.3 650 54.7 675 51C700 47.3 725 35.7 750 36C775 36.3 800 48.7 825 52.7C850 56.7 875 52.3 887.5 50.2L900 48L900 101L887.5 101C875 101 850 101 825 101C800 101 775 101 750 101C725 101 700 101 675 101C650 101 625 101 600 101C575 101 550 101 525 101C500 101 475 101 450 101C425 101 400 101 375 101C350 101 325 101 300 101C275 101 250 101 225 101C200 101 175 101 150 101C125 101 100 101 75 101C50 101 25 101 12.5 101L0 101Z" fill="#0E0063" stroke-linecap="round" stroke-linejoin="miter"></path></svg>