<svg id="visual" viewBox="0 0 1920 50" width="1920" height="50" xmlns="http://www.w3.org/2000/svg" xmlns:xlink="http://www.w3.org/1999/xlink" version="1.1"><rect x="0" y="0" width="1920" height="50" fill="#ffffff"></rect><path d="M0 36L12.3 33.2C24.7 30.3 49.3 24.7 74 22.2C98.7 19.7 123.3 20.3 148 18.5C172.7 16.7 197.3 12.3 221.8 13.8C246.3 15.3 270.7 22.7 295.2 23.7C319.7 24.7 344.3 19.3 369 20.5C393.7 21.7 418.3 29.3 443 33C467.7 36.7 492.3 36.3 517 36C541.7 35.7 566.3 35.3 591 34.2C615.7 33 640.3 31 664.8 26C689.3 21 713.7 13 738.2 13C762.7 13 787.3 21 812 24.7C836.7 28.3 861.3 27.7 886 25C910.7 22.3 935.3 17.7 960 15.2C984.7 12.7 1009.3 12.3 1034 15.5C1058.7 18.7 1083.3 25.3 1108 27C1132.7 28.7 1157.3 25.3 1181.8 25.3C1206.3 25.3 1230.7 28.7 1255.2 30C1279.7 31.3 1304.3 30.7 1329 30C1353.7 29.3 1378.3 28.7 1403 27C1427.7 25.3 1452.3 22.7 1477 21.3C1501.7 20 1526.3 20 1551 23.2C1575.7 26.3 1600.3 32.7 1624.8 35.5C1649.3 38.3 1673.7 37.7 1698.2 35.8C1722.7 34 1747.3 31 1772 26C1796.7 21 1821.3 14 1846 15.2C1870.7 16.3 1895.3 25.7 1907.7 30.3L1920 35L1920 51L1907.7 51C1895.3 51 1870.7 51 1846 51C1821.3 51 1796.7 51 1772 51C1747.3 51 1722.7 51 1698.2 51C1673.7 51 1649.3 51 1624.8 51C1600.3 51 1575.7 51 1551 51C1526.3 51 1501.7 51 1477 51C1452.3 51 1427.7 51 1403 51C1378.3 51 1353.7 51 1329 51C1304.3 51 1279.7 51 1255.2 51C1230.7 51 1206.3 51 1181.8 51C1157.3 51 1132.7 51 1108 51C1083.3 51 1058.7 51 1034 51C1009.3 51 984.7 51 960 51C935.3 51 910.7 51 886 51C861.3 51 836.7 51 812 51C787.3 51 762.7 51 738.2 51C713.7 51 689.3 51 664.8 51C640.3 51 615.7 51 591 51C566.3 51 541.7 51 517 51C492.3 51 467.7 51 443 51C418.3 51 393.7 51 369 51C344.3 51 319.7 51 295.2 51C270.7 51 246.3 51 221.8 51C197.3 51 172.7 51 148 51C123.3 51 98.7 51 74 51C49.3 51 24.7 51 12.3 51L0 51Z" fill="#0E0063" stroke-linecap="round" stroke-linejoin="miter"></path></svg>