<svg id="visual" viewBox="0 0 900 50" width="900" height="50" xmlns="http://www.w3.org/2000/svg" xmlns:xlink="http://www.w3.org/1999/xlink" version="1.1"><rect x="0" y="0" width="900" height="50" fill="#fff"></rect><path d="M0 33L7.8 31.2C15.7 29.3 31.3 25.7 47.2 26.5C63 27.3 79 32.7 94.8 33.3C110.7 34 126.3 30 142 26.3C157.7 22.7 173.3 19.3 189.2 20.8C205 22.3 221 28.7 236.8 27.7C252.7 26.7 268.3 18.3 284.2 16C300 13.7 316 17.3 331.8 20.5C347.7 23.7 363.3 26.3 379 25.2C394.7 24 410.3 19 426.2 15.8C442 12.7 458 11.3 473.8 15.2C489.7 19 505.3 28 521 30.2C536.7 32.3 552.3 27.7 568.2 26C584 24.3 600 25.7 615.8 27.8C631.7 30 647.3 33 663.2 32.3C679 31.7 695 27.3 710.8 26.3C726.7 25.3 742.3 27.7 758 28C773.7 28.3 789.3 26.7 805.2 26.8C821 27 837 29 852.8 28.7C868.7 28.3 884.3 25.7 892.2 24.3L900 23L900 0L892.2 0C884.3 0 868.7 0 852.8 0C837 0 821 0 805.2 0C789.3 0 773.7 0 758 0C742.3 0 726.7 0 710.8 0C695 0 679 0 663.2 0C647.3 0 631.7 0 615.8 0C600 0 584 0 568.2 0C552.3 0 536.7 0 521 0C505.3 0 489.7 0 473.8 0C458 0 442 0 426.2 0C410.3 0 394.7 0 379 0C363.3 0 347.7 0 331.8 0C316 0 300 0 284.2 0C268.3 0 252.7 0 236.8 0C221 0 205 0 189.2 0C173.3 0 157.7 0 142 0C126.3 0 110.7 0 94.8 0C79 0 63 0 47.2 0C31.3 0 15.7 0 7.8 0L0 0Z" fill="#0E0063" stroke-linecap="round" stroke-linejoin="miter"></path></svg>